<?xml version="1.0" encoding="UTF-8"?>
<svg id="Layer_1" data-name="Layer 1" xmlns="http://www.w3.org/2000/svg" viewBox="0 0 134.46 32.72">
  <defs>
    <style>
      .cls-1 {
        letter-spacing: .03em;
      }

      .cls-1, .cls-2 {
        fill: #0c1229;
      }

      .cls-3 {
        fill: #0bbbb6;
      }

      .cls-4 {
        font-family: MalgunGothic-Semilight, 'Malgun Gothic';
        font-size: 15px;
        font-weight: 300;
      }

      .cls-4, .cls-5 {
        fill: #c9a236;
      }

      .cls-6 {
        font-family: MalgunGothicBold, 'Malgun Gothic';
        font-size: 16px;
      }
    </style>
  </defs>
  <path class="cls-5" d="m14.87,32.44c-.25-.29-.55-.59-.8-.89l-.5-.55c-.13-.12-.25-.29-.38-.42l-.04-.04c-.17-.17-.34-.39-.5-.55-.29-.34-.63-.68-.92-1.01l-.13-.12-.08-.09c-.34-.39-.71-.77-1.05-1.14s-.56-.68-.86-.97c-.16-.18-.32-.36-.46-.55-.12-.13-.25-.29-.38-.42-.04-.04-.08-.13-.17-.17-.46-.51-.92-1.01-1.34-1.52-.09-.21-.22-.39-.38-.55-.04-.05-.06-.11-.07-.17,0-.07.03-.13.08-.17.38-.39.77-.72,1.13-1.1h.04c.42-.39.79-.77,1.17-1.14.33-.28.67-.63,1.01-.97.09-.05.19-.08.29-.09h13.06c.15,0,.29.05.38.17.71.67,1.38,1.35,2.09,2.02.1.11.21.21.33.29.29.26.55.51.84.8.08.06.1.17.05.25-.01.02-.03.04-.05.05-.5.59-1.05,1.14-1.54,1.73l-.04.04c-.08.13-.21.21-.3.34l-.89,1.01-.04.04-.84.93c-.3.34-.59.63-.88.97l-.17.21c-.25.29-.55.59-.79.89-.63.67-1.21,1.35-1.8,2.02-.21.25-.42.51-.67.77-.04.04-.08.09-.13.09s-.08-.04-.12-.09l-1.09-1.24c-.18-.19-.35-.38-.5-.59-.08-.09-.12-.17-.21-.26,0-.02-.02-.04-.04-.04h0s-.04-.04-.08-.04-.08.04-.12.09c-.38.46-.8.89-1.22,1.35-.12.13-.21.25-.29.34s-.25.29-.38.42c0,.04-.04.04-.08.04-.03.03-.08.03-.11,0h-.02Zm-4.19-11.22c-.17.12-.33.26-.46.42-.07.08-.16.15-.25.21l-.61.6c-.29.25-.55.51-.84.8,0,.04-.04.04-.04.09s.04.09.04.12c.17.17.33.39.5.55.09.11.18.21.29.29l.21.26c.5.59,1.05,1.16,1.59,1.77l1,1.1.04.04c.35.36.69.74,1.01,1.14.08.12.18.24.29.34.08.09.17.21.25.3.21.25.46.5.67.77.15.19.31.37.49.53t.08.04s.04,0,.08-.04c.38-.42.71-.84,1.09-1.23.07-.05.08-.15.03-.22,0,0,0,0,0,0l-.03-.03c-.21-.21-.42-.46-.63-.67l-.03-.05c-.38-.39-.67-.77-1-1.14-.55-.63-1.13-1.27-1.67-1.9l-.13-.13-.29-.32-.17-.17-.17-.17v-.05l-1.01-1.14s-.04,0-.04-.04,0-.04.04-.09c.29-.29.67-.63,1.04-1.01.21-.21.46-.42.67-.63l.04-.04.29-.29v-.04h-2.26s-.08,0-.12.04h-.02Zm10.72.39c.08.09.17.13.21.21.46.46.96.93,1.47,1.39.08.09.08.13,0,.21-.17.17-.32.35-.46.55-.17.21-.38.42-.55.63-.67.77-1.3,1.47-1.88,2.11-.3.29-.55.59-.84.93l-.84.92c-.11.12-.21.25-.29.39-.08.09-.17.21-.25.3s-.08.12,0,.17c.38.42.77.8,1.09,1.22l.08.09s.04,0,.08-.09l.04-.08s.04-.04.04-.09c.63-.72,1.26-1.44,1.92-2.15l.08-.09c.22-.23.43-.47.63-.72.33-.39.71-.8,1.09-1.27l.04-.04c.21-.25.42-.46.63-.72.13-.13.25-.3.38-.42l.13-.13c.42-.46.88-.97,1.3-1.48.06,0,.12-.03.13-.09,0,0,0,0,0,0v-.04s-.04-.09-.08-.17l-1.15-1.05-.04-.04c-.25-.26-.5-.51-.79-.77-.08-.08-.18-.14-.3-.17h-2.25c.12.17.25.33.38.48h0Zm-6.56-.34c-.13.12-.3.25-.42.39l-.25.25c-.2.17-.4.36-.58.55l-.04.04-.04.04c-.25.25-.5.46-.77.72-.05,0-.08.04-.08.09,0,.04.04.09.04.12.25.26.5.55.71.8l.04.04c.25.26.5.59.79.89l1.26,1.39c.25.29.59.63.88.97.19.2.38.41.55.63.04.04.08.09.12.09s.08-.04.13-.09c.17-.21.38-.42.55-.63l.04-.04c.12-.13.21-.26.33-.39l.17-.17c.67-.72,1.34-1.52,2.01-2.28.14-.15.27-.3.38-.46.21-.26.46-.51.71-.8.04.04.08,0,.08-.09s0-.09-.08-.13c-.55-.51-1.09-1.05-1.63-1.55l-.04-.04-.13-.13-.21-.21c-.09-.09-.21-.13-.33-.13h-3.89c-.11,0-.22.04-.29.12Zm1.51,5.48c-.18-.22-.38-.43-.59-.63-.08-.09-.08-.13,0-.21.34-.39.67-.72,1.01-1.1s.77-.89,1.15-1.31c.08-.12.08-.17,0-.25-.46-.42-.92-.89-1.38-1.31-.08-.09-.13-.13-.13-.21h1.59c.17,0,.29.21.42.34.42.39.8.77,1.21,1.14.08.09.04.13,0,.17-.21.25-.42.46-.63.72-.55.63-1.09,1.22-1.63,1.81-.25.29-.5.55-.77.84-.04.08-.08.08-.12.08-.06,0-.11-.03-.14-.08Z"/>
  <text class="cls-6" transform="translate(6.17 16.81)"><tspan class="cls-2" x="0" y="0">Sma</tspan><tspan class="cls-1" x="32.52" y="0">r</tspan><tspan class="cls-2" x="39.3" y="0">t</tspan><tspan class="cls-3" x="45.45" y="0">Muse</tspan></text>
  <text class="cls-4" transform="translate(30.35 30.58)"><tspan x="0" y="0">Creations</tspan></text>
</svg>